# xmcd CD database file
#
# Track frame offsets:
#	150
#	14224
#	29008
#	46193
#	63523
#	82529
#	96582
#	116663
#	137594
#	158286
#	169851
#	187544
#	200774
#	219135
#	233462
#	251461
#	267863
#	285548
#	299730
#	314790
#	332579
#
# Disc length: 4688 seconds
#
# Revision: 1
# Processed by: cddbd v1.5.2PL0 Copyright (c) Steve Scherf et al.
# Submitted via: CDex 1.51
#
DISCID=29124e15
DTITLE=Michael Buble - Collection
DYEAR=2008
DGENRE=Jazz
TTITLE0=Sway
TTITLE1=Come Fly With Me
TTITLE2=Can't Help Falling In Love
TTITLE3=Fever
TTITLE4=Moondance
TTITLE5=My Funny Valentine
TTITLE6=Put Your Head On My Shoulder
TTITLE7=The Way You Look Tonight
TTITLE8=Kissing A Fool
TTITLE9=For Once In My Life
TTITLE10=How Can You Mend A Broken Heart
TTITLE11=Summer Wind
TTITLE12=You'll Never Find Another Love Like Mine
TTITLE13=Crazy Little Thing Called Love
TTITLE14=That's All
TTITLE15=Save The Last Dance For Me
TTITLE16=You And I
TTITLE17=Dream A Little Dream Of Me
TTITLE18=Mack The Knife
TTITLE19=Feeling Good
TTITLE20=You Don't Know Me
EXTD=YEAR: 2008
EXTT0=
EXTT1=
EXTT2=
EXTT3=
EXTT4=
EXTT5=
EXTT6=
EXTT7=
EXTT8=
EXTT9=
EXTT10=
EXTT11=
EXTT12=
EXTT13=
EXTT14=
EXTT15=
EXTT16=
EXTT17=
EXTT18=
EXTT19=
EXTT20=
PLAYORDER=
